<?xml version="1.0" standalone="no"?>
<!DOCTYPE svg PUBLIC "-//W3C//DTD SVG 20010904//EN"
 "http://www.w3.org/TR/2001/REC-SVG-20010904/DTD/svg10.dtd">
<svg version="1.0" xmlns="http://www.w3.org/2000/svg"
 width="512.000000pt" height="512.000000pt" viewBox="0 0 512.000000 512.000000"
 preserveAspectRatio="xMidYMid meet">
<metadata>
Created by potrace 1.11, written by Peter Selinger 2001-2013
</metadata>
<g transform="translate(0.000000,512.000000) scale(0.100000,-0.100000)"
fill="#000000" stroke="none">
<path d="M2040 4780 c0 -5 4 -11 9 -14 5 -4 30 -54 54 -114 115 -272 131 -472
56 -697 -65 -194 -160 -329 -479 -681 -317 -348 -445 -520 -549 -737 -97 -202
-142 -365 -161 -590 -52 -603 274 -1163 843 -1449 55 -27 146 -65 202 -84 157
-52 413 -102 277 -54 -136 49 -239 116 -334 219 -80 87 -122 158 -161 268 -27
78 -31 104 -35 226 -19 618 265 1103 922 1575 55 39 101 70 104 68 2 -2 -10
-44 -26 -93 -63 -188 -74 -342 -35 -468 34 -107 89 -179 287 -377 189 -189
240 -254 288 -369 45 -109 61 -204 56 -348 -4 -108 -9 -139 -35 -214 -39 -110
-81 -181 -161 -268 -95 -103 -198 -170 -334 -219 -70 -24 -36 -24 80 0 594
125 1062 556 1202 1106 54 208 59 471 16 777 -131 925 -694 1733 -1588 2281
-198 121 -498 275 -498 256z"/>
</g>
</svg>
