<svg id="svg" version="1.1" viewBox="0 0 400 400" preserveAspectRatio="xMinYMin meet"><g id="svgg"><path id="path0" d="M159.000 26.500 C 159.000 27.325,159.450 28.000,160.000 28.000 C 160.550 28.000,161.000 28.519,161.000 29.154 C 161.000 29.788,162.081 32.600,163.402 35.404 C 167.450 43.993,170.159 53.174,170.725 60.227 C 171.022 63.927,171.556 66.775,171.910 66.555 C 172.958 65.908,171.048 81.029,169.329 87.000 C 167.211 94.355,162.745 105.000,161.777 105.000 C 161.350 105.000,161.000 105.590,161.000 106.311 C 161.000 107.033,160.100 108.589,159.000 109.770 C 157.900 110.950,157.000 112.315,157.000 112.803 C 157.000 113.290,155.856 114.996,154.458 116.594 C 153.060 118.193,150.268 121.638,148.253 124.250 C 146.238 126.863,144.231 129.000,143.795 129.000 C 143.358 129.000,143.000 129.464,143.000 130.031 C 143.000 130.598,141.425 132.507,139.500 134.274 C 137.575 136.041,136.000 137.737,136.000 138.043 C 136.000 138.350,133.637 141.060,130.750 144.066 C 127.862 147.073,123.025 152.412,120.000 155.933 C 116.975 159.453,113.713 163.033,112.750 163.889 C 111.787 164.744,111.000 165.747,111.000 166.116 C 111.000 166.486,109.637 168.248,107.971 170.031 C 106.304 171.815,105.149 173.482,105.403 173.737 C 105.658 173.991,104.546 175.489,102.933 177.066 C 101.320 178.643,100.000 180.177,100.000 180.477 C 100.000 180.776,98.425 183.261,96.500 186.000 C 94.575 188.739,93.000 191.659,93.000 192.490 C 93.000 193.320,92.633 194.000,92.184 194.000 C 91.735 194.000,90.092 196.813,88.532 200.250 C 81.805 215.077,80.216 219.290,79.007 225.500 C 78.579 227.700,77.532 232.944,76.681 237.153 C 74.630 247.294,74.568 268.460,76.563 277.000 C 77.398 280.575,78.459 285.300,78.921 287.500 C 80.638 295.675,88.553 313.047,93.586 319.683 C 94.914 321.434,96.000 323.185,96.000 323.575 C 96.000 323.965,97.346 325.570,98.991 327.142 C 100.636 328.714,101.697 330.000,101.350 330.000 C 100.082 330.000,121.126 349.905,123.034 350.511 C 124.115 350.854,125.000 351.554,125.000 352.067 C 125.000 352.580,125.430 353.000,125.956 353.000 C 126.481 353.000,128.596 354.143,130.655 355.541 C 135.000 358.489,154.421 368.000,156.097 368.000 C 156.721 368.000,159.317 368.658,161.866 369.463 C 169.305 371.812,182.021 374.312,182.761 373.572 C 183.711 372.622,180.944 371.034,178.309 371.015 C 177.104 371.007,175.821 370.519,175.458 369.932 C 175.095 369.344,174.168 369.105,173.399 369.400 C 172.629 369.696,172.000 369.475,172.000 368.910 C 172.000 368.344,171.581 368.141,171.069 368.457 C 170.557 368.774,169.862 368.586,169.525 368.041 C 169.188 367.495,166.569 365.462,163.706 363.523 C 155.161 357.736,143.000 343.561,143.000 339.388 C 143.000 338.625,142.475 338.000,141.833 338.000 C 141.192 338.000,140.949 337.718,141.294 337.373 C 141.639 337.028,141.179 335.116,140.273 333.123 C 137.709 327.484,137.636 296.765,140.164 287.394 C 141.187 283.602,142.418 278.548,142.899 276.163 C 143.381 273.777,144.275 271.325,144.887 270.713 C 145.499 270.101,146.000 268.747,146.000 267.704 C 146.000 266.662,146.928 264.505,148.063 262.911 C 149.198 261.318,149.879 259.613,149.577 259.124 C 149.275 258.635,149.849 257.170,150.854 255.868 C 151.859 254.565,153.978 251.250,155.562 248.500 C 158.924 242.666,158.118 243.795,166.631 233.000 C 174.905 222.507,193.756 204.000,196.169 204.000 C 196.661 204.000,197.306 203.366,197.603 202.592 C 197.900 201.817,199.461 200.637,201.072 199.970 C 202.682 199.303,204.000 198.399,204.000 197.960 C 204.000 197.522,205.688 196.155,207.750 194.922 C 209.813 193.690,212.738 191.544,214.250 190.154 C 217.477 187.187,218.024 188.876,215.610 194.349 C 207.233 213.333,210.060 235.141,222.628 248.500 C 224.180 250.150,225.345 251.850,225.216 252.278 C 225.087 252.706,225.747 253.350,226.684 253.709 C 229.064 254.622,250.000 276.023,250.000 277.542 C 250.000 278.226,250.563 279.010,251.250 279.284 C 252.531 279.795,254.993 284.357,259.146 293.918 C 262.235 301.029,262.654 325.687,259.803 332.637 C 258.870 334.912,258.383 337.049,258.720 337.387 C 259.057 337.724,258.808 338.000,258.167 338.000 C 257.525 338.000,257.000 338.625,257.000 339.388 C 257.000 343.561,244.839 357.736,236.294 363.523 C 233.431 365.462,230.812 367.495,230.475 368.041 C 230.138 368.586,229.443 368.774,228.931 368.457 C 228.419 368.141,228.000 368.344,228.000 368.910 C 228.000 369.475,227.371 369.696,226.601 369.400 C 225.832 369.105,224.905 369.344,224.542 369.932 C 224.179 370.519,222.896 371.007,221.691 371.015 C 219.056 371.034,216.289 372.622,217.239 373.572 C 217.979 374.312,230.695 371.812,238.134 369.463 C 240.683 368.658,243.279 368.000,243.903 368.000 C 245.579 368.000,265.000 358.489,269.345 355.541 C 271.404 354.143,273.519 353.000,274.044 353.000 C 274.570 353.000,275.000 352.580,275.000 352.067 C 275.000 351.554,275.885 350.854,276.966 350.511 C 278.874 349.905,299.918 330.000,298.650 330.000 C 298.303 330.000,299.364 328.714,301.009 327.142 C 302.654 325.570,304.000 323.965,304.000 323.575 C 304.000 323.185,305.086 321.434,306.414 319.683 C 311.447 313.047,319.362 295.675,321.079 287.500 C 321.541 285.300,322.599 280.575,323.431 277.000 C 324.994 270.284,325.637 238.003,324.208 237.997 C 323.819 237.995,323.486 236.083,323.469 233.747 C 323.434 228.800,321.614 217.274,319.405 208.000 C 318.553 204.425,317.677 200.200,317.458 198.612 C 317.239 197.024,316.414 193.874,315.623 191.612 C 314.833 189.350,313.281 184.575,312.174 181.000 C 311.067 177.425,309.452 173.150,308.586 171.500 C 307.721 169.850,307.010 168.084,307.006 167.575 C 307.003 167.066,305.473 163.466,303.608 159.575 C 301.742 155.684,299.920 151.825,299.560 151.000 C 299.200 150.175,297.812 147.700,296.476 145.500 C 295.140 143.300,293.582 140.600,293.013 139.500 C 291.908 137.364,286.947 129.820,280.608 120.637 C 278.468 117.537,276.331 115.000,275.858 115.000 C 275.386 115.000,275.000 114.420,275.000 113.712 C 275.000 113.004,272.382 109.621,269.183 106.196 C 265.983 102.770,263.503 99.830,263.671 99.662 C 264.425 98.909,234.516 71.000,232.955 71.000 C 232.548 71.000,231.955 70.325,231.638 69.500 C 231.322 68.675,230.374 68.000,229.531 68.000 C 228.689 68.000,228.000 67.572,228.000 67.048 C 228.000 66.524,225.863 64.643,223.250 62.867 C 220.637 61.091,218.140 59.044,217.700 58.319 C 217.260 57.593,216.490 57.000,215.989 57.000 C 215.488 57.000,211.572 54.615,207.289 51.700 C 203.005 48.785,198.825 46.082,198.000 45.693 C 197.175 45.305,194.700 43.861,192.500 42.486 C 186.390 38.666,175.002 33.021,174.985 33.804 C 174.976 34.187,174.639 34.050,174.235 33.500 C 173.266 32.182,167.000 28.712,167.000 29.494 C 167.000 29.828,165.495 28.954,163.656 27.551 C 159.793 24.605,159.000 24.426,159.000 26.500 " class= "logo" stroke="none" fill="#159494" fill-rule="evenodd"></path></g></svg>
